{"title":"Jeepers Creepers Origins (FAN EDIT)2011 DVDRip Xvid LKRG","uid":6784763,"size":2671787925,"categoryP":"video","categoryS":"movies","magnet":"?xt=urn:btih:415bc0b59a94fd374a14688abfb96235fa70c020&amp;dn=Jeepers+Creepers+Origins+%28FAN+EDIT%292011+DVDRip+Xvid+LKRG&amp;tr=udp%3A%2F%2Ftracker.openbittorrent.com%3A80&amp;tr=udp%3A%2F%2Fopen.demonii.com%3A1337&amp;tr=udp%3A%2F%2Ftracker.coppersurfer.tk%3A6969&amp;tr=udp%3A%2F%2Fexodus.desync.com%3A6969","seeders":0,"leechers":1,"uploader":"LegendET","files":5,"time":1320050503,"description":" &lt;a href=&quot;\nhttp://image.bayimg.com/iakmeaadl.jpg&quot; rel=&quot;nofollow&quot; target=&quot;_NEW&quot;&gt;\nhttp://image.bayimg.com/iakmeaadl.jpg&lt;/a&gt;\n &lt;a href=&quot;\nhttp://image.bayimg.com/iakmkaadl.jpg&quot; rel=&quot;nofollow&quot; target=&quot;_NEW&quot;&gt;\nhttp://image.bayimg.com/iakmkaadl.jpg&lt;/a&gt;\n &lt;a href=&quot;\nhttp://image.bayimg.com/jakmcaadl.jpg&quot; rel=&quot;nofollow&quot; target=&quot;_NEW&quot;&gt;\nhttp://image.bayimg.com/jakmcaadl.jpg&lt;/a&gt;\n &lt;a href=&quot;\nhttp://image.bayimg.com/iakmmaadl.jpg&quot; rel=&quot;nofollow&quot; target=&quot;_NEW&quot;&gt;\nhttp://image.bayimg.com/iakmmaadl.jpg&lt;/a&gt;\n &lt;a href=&quot;\nhttp://image.bayimg.com/jakmbaadl.jpg&quot; rel=&quot;nofollow&quot; target=&quot;_NEW&quot;&gt;\nhttp://image.bayimg.com/jakmbaadl.jpg&lt;/a&gt;\n\nJeepers Creepers 1 and 2\nIt Waits\n\nPartial scenes\n\nDead And Breakfast\nHell house\n\nBeen a while since i did a edit and since Halloween is around the corner thought why not getting rusty here.If you have ever seen any of my prior edits i do\nway to much work to list everything,but here are some basics the intro,every transition between each movie ending and the next starting is custom made image per\nimage.I took a few scenes out of it waits that clashed with the edit and added a few custom scenes of the creature from jeepers creepers throughout,the ending is custom made\nas is majority of the music you hear throughout the whole edit.\n\nJeepers creepers 1 was pretty much untouched except for 2 scenes were removed some vocals switched around and efcourse the ending transition was altered.Jeepers Creepers 2\ni took all the deleted scenes and muxed em back to my encode,took out some original scenes left some intact,edited music and some vocals,If you have seen these movies numerous times\nvery easy to spot the edits if you haven't this one should be enjoyable.The flow is very smooth i tried to match everything up from dates to times so it doesn't look like i just joined\nthe 3 together,anyway you be the judge enjoy and HAPPY HALLOWEEN FROM LKRG.\n\n\nFile Size:2.6gb\n\nVideo\nID                               : 0\nFormat                           : MPEG-4 Visual\nFormat profile                   : Advanced Simple@L5\nFormat settings, BVOP            : Yes\nFormat settings, QPel            : No\nFormat settings, GMC             : No warppoints\nFormat settings, Matrix          : Custom\nCodec ID                         : XVID\nCodec ID/Hint                    : XviD\nDuration                         : 4hr 24mn\nBit rate                         : 1 757 Kbps\nWidth                            : 680 pixels\nHeight                           : 364 pixels\nDisplay aspect ratio             : 1.868\nFrame rate                       : 23.976 fps\nColor space                      : YUV\nChroma subsampling               : 4:2:0\nBit depth                        : 8 bits\nScan type                        : Progressive\nBits/(Pixel*Frame)               : 0.262\nStream size                      : 63.4 MiB (2%)\nWriting library                  : XviD 1.2.1 (UTC 2008-12-04)\n\nAudio\nID                               : 1\nFormat                           : MPEG Audio\nCodec ID                         : 55\nCodec ID/Hint                    : MP3\nDuration                         : 4hr 24mn\nBit rate                         : 128 Kbps\nChannel(s)                       : 2 channels\nSampling rate                    : 48.0 KHz\nStream size                      : 5.21 MiB (0%)\nAlignment                        : Aligned on interleaves\n\n\n\nRelease Date:2011\n","torrent":{"xt":"urn:btih:415bc0b59a94fd374a14688abfb96235fa70c020","amp;dn":"Jeepers+Creepers+Origins+%28FAN+EDIT%292011+DVDRip+Xvid+LKRG","amp;tr":["udp%3A%2F%2Ftracker.openbittorrent.com%3A80","udp%3A%2F%2Fopen.demonii.com%3A1337","udp%3A%2F%2Ftracker.coppersurfer.tk%3A6969","udp%3A%2F%2Fexodus.desync.com%3A6969"],"infoHash":"415bc0b59a94fd374a14688abfb96235fa70c020","infoHashBuffer":{"type":"Buffer","data":[65,91,192,181,154,148,253,55,74,20,104,138,191,185,98,53,250,112,192,32]},"announce":[],"urlList":[]}}